#N canvas 0 83 1360 685 12;
#X msg 143 89 bend 1 \$1;
#X obj 142 224 fluid~;
#X obj 143 39 * 50;
#X obj 85 15 inlet;
#X obj 141 250 *~;
#X obj 136 281 dac~;
#X obj 257 14 inlet;
#X obj 257 184 / 10;
#X obj 221 230 line~;
#X msg 256 206 \$1 50;
#X obj 4 86 loadbang;
#X obj 4 110 delay 100;
#X msg 4 135 load /home/pi/modulorgue/b16.sf2;
#X msg 220 89 bend 2 \$1;
#X msg 297 89 bend 3 \$1;
#X floatatom 421 56 5 0 0 0 - - -, f 5;
#X obj 143 13 ctlin 0 10;
#X obj 143 63 + 4500;
#X connect 0 0 1 0;
#X connect 1 0 4 0;
#X connect 1 1 4 0;
#X connect 2 0 17 0;
#X connect 3 0 1 0;
#X connect 4 0 5 0;
#X connect 4 0 5 1;
#X connect 6 0 7 0;
#X connect 7 0 9 0;
#X connect 8 0 4 1;
#X connect 9 0 8 0;
#X connect 10 0 11 0;
#X connect 11 0 12 0;
#X connect 12 0 1 0;
#X connect 13 0 1 0;
#X connect 14 0 1 0;
#X connect 15 0 2 0;
#X connect 16 0 2 0;
#X connect 17 0 0 0;
#X connect 17 0 13 0;
#X connect 17 0 14 0;
