#N canvas 0 83 1360 685 12;
#X obj 146 251 fluid~;
#X obj 144 75 * 50;
#X obj 99 49 inlet;
#X obj 233 49 inlet;
#X obj 233 213 / 10;
#X obj 234 258 line~;
#X msg 232 235 \$1 50;
#X obj 149 279 *~;
#X obj 145 306 dac~;
#X obj 9 99 loadbang;
#X obj 9 127 delay 100;
#X msg 11 168 load /home/pi/modulorgue/b8.sf2;
#X msg 144 125 bend 1 \$1;
#X msg 245 125 bend 2 \$1;
#X msg 335 127 bend 3 \$1;
#X obj 144 49 ctlin 0 10;
#X obj 144 99 + 4500;
#X floatatom 336 58 5 0 0 0 - - -, f 5;
#X connect 0 0 7 0;
#X connect 0 1 7 0;
#X connect 1 0 16 0;
#X connect 2 0 0 0;
#X connect 3 0 4 0;
#X connect 4 0 6 0;
#X connect 5 0 7 1;
#X connect 6 0 5 0;
#X connect 7 0 8 0;
#X connect 7 0 8 1;
#X connect 9 0 10 0;
#X connect 10 0 11 0;
#X connect 11 0 0 0;
#X connect 12 0 0 0;
#X connect 13 0 0 0;
#X connect 14 0 0 0;
#X connect 15 0 1 0;
#X connect 16 0 12 0;
#X connect 16 0 13 0;
#X connect 16 0 14 0;
#X connect 17 0 1 0;
