#N canvas 227 238 546 457 12;
#X obj 146 251 fluid~;
#X obj 99 49 inlet;
#X obj 233 49 inlet;
#X obj 234 258 line~;
#X msg 232 235 \$1 50;
#X obj 149 279 *~;
#X obj 145 306 dac~;
#X obj 9 99 loadbang;
#X obj 9 127 delay 100;
#X msg 11 168 load /home/pi/dev/modulorgue/b8.sf2;
#X msg 144 139 bend 1 \$1;
#X msg 245 139 bend 2 \$1;
#X msg 335 141 bend 3 \$1;
#X obj 144 44 ctlin 0 10;
#X floatatom 336 72 5 0 0 0 - - -;
#X obj 232 212 / 1;
#X obj 144 67 - 64;
#X obj 144 89 * 15;
#X obj 144 113 + 7100;
#X connect 0 0 5 0;
#X connect 0 1 5 0;
#X connect 1 0 0 0;
#X connect 2 0 15 0;
#X connect 3 0 5 1;
#X connect 4 0 3 0;
#X connect 5 0 6 0;
#X connect 5 0 6 1;
#X connect 7 0 8 0;
#X connect 8 0 9 0;
#X connect 9 0 0 0;
#X connect 10 0 0 0;
#X connect 11 0 0 0;
#X connect 12 0 0 0;
#X connect 13 0 16 0;
#X connect 14 0 17 0;
#X connect 15 0 4 0;
#X connect 16 0 17 0;
#X connect 17 0 18 0;
#X connect 18 0 10 0;
#X connect 18 0 11 0;
#X connect 18 0 12 0;
