#N canvas 357 290 579 398 10;
#X obj 123 32 tgl 100 0 2b8 2b8s BOURDON_8' 11 -8 1 13 -72168 -66577
-66577 1 1;
#X obj 235 32 tgl 100 0 2b4 2b4s FLUTE_4' 21 -8 1 13 -72168 -66577
-66577 0 1;
#X obj 348 32 tgl 100 0 2b223 2b223s QUINTE_2'_2/3 6 -8 1 13 -72168
-66577 -66577 0 1;
#X obj 460 32 tgl 100 0 2b2 2b2s FLUTE_2 20 -8 1 13 -72168 -66577 -66577
0 1;
#X obj 12 32 tgl 100 0 2b16 2b16s BOURDON_16' 8 -8 1 13 -72168 -66577
-66577 0 1;
#X obj 123 158 tgl 100 0 1b8 1b8s BOURDON_8' 11 -8 1 13 -72168 -66577
-66577 0 1;
#X obj 235 158 tgl 100 0 1b4 1b4s FLUTE_4' 21 -8 1 13 -72168 -66577
-66577 1 1;
#X obj 348 158 tgl 100 0 1b223 1b223s QUINTE_2'_2/3 6 -8 1 13 -72168
-66577 -66577 0 1;
#X obj 460 158 tgl 100 0 1b2 1b2s FLUTE_2 20 -8 1 13 -72168 -66577
-66577 0 1;
#X obj 12 157 tgl 100 0 1b16 1b16s BOURDON_16' 8 -8 1 13 -72168 -66577
-66577 0 1;
#X obj 123 287 tgl 100 0 pb8 pb8s BOURDON_8' 11 -8 1 13 -72168 -66577
-66577 0 1;
#X obj 235 287 tgl 100 0 pb4 pb4s FLUTE_4' 21 -8 1 13 -72168 -66577
-66577 1 1;
#X obj 12 287 tgl 100 0 pb16 pb16s BOURDON_16' 8 -8 1 13 -72168 -66577
-66577 0 1;
#X obj 348 368 ossia.client modulorgue;
#X msg 348 342 connect oscquery;
#X obj 348 285 loadbang;
#X obj 348 313 delay 10;
#N canvas 959 56 362 236 interfaces_combinateurs 1;
#X floatatom 27 129 5 0 0 0 - - -;
#X obj 30 13 ossia.view combinateur;
#X obj 64 128 ossia.remote niveau;
#X obj 25 81 ossia.remote sauver;
#X obj 158 82 ossia.remote charger;
#X obj 25 57 bng 15 250 50 0 empty empty empty 17 7 0 10 -262144 -1
-1;
#X obj 158 58 bng 15 250 50 0 empty empty empty 17 7 0 10 -262144 -1
-1;
#X floatatom 26 159 5 0 0 0 - - -;
#X obj 63 158 ossia.remote serie;
#X floatatom 26 184 5 0 0 0 - - -;
#X obj 63 183 ossia.remote combinaison;
#X obj 221 120 bng 15 250 50 0 empty empty empty 17 7 0 10 -262144
-1 -1;
#X obj 221 144 ossia.remote reset, f 12;
#X connect 0 0 2 0;
#X connect 2 0 0 0;
#X connect 5 0 3 0;
#X connect 6 0 4 0;
#X connect 7 0 8 0;
#X connect 8 0 7 0;
#X connect 9 0 10 0;
#X connect 10 0 9 0;
#X connect 11 0 12 0;
#X restore 413 312 pd interfaces_combinateurs;
#N canvas 200 113 969 646 interfaces_registres 0;
#X obj 661 293 ossia.view registres;
#X obj 395 208 tgl 15 0 empty empty empty 17 7 0 10 -262144 -1 -1 1
1;
#X obj 392 123 tgl 15 0 empty empty empty 17 7 0 10 -262144 -1 -1 0
1;
#X obj 244 207 tgl 15 0 empty empty empty 17 7 0 10 -262144 -1 -1 0
1;
#X obj 241 122 tgl 15 0 empty empty empty 17 7 0 10 -262144 -1 -1 0
1;
#X obj 99 207 tgl 15 0 empty empty empty 17 7 0 10 -262144 -1 -1 0
1;
#X obj 96 122 tgl 15 0 empty empty empty 17 7 0 10 -262144 -1 -1 0
1;
#X obj 680 6 r 2b2;
#X obj 681 78 s 2b2s;
#X obj 539 9 r 2b223;
#X obj 539 92 s 2b223s;
#X obj 421 8 r 2b4;
#X obj 421 93 s 2b4s;
#X obj 394 89 tgl 15 0 empty empty empty 17 7 0 10 -262144 -1 -1 0
1;
#X obj 391 7 tgl 15 0 empty empty empty 17 7 0 10 -262144 -1 -1 0 1
;
#X obj 243 88 tgl 15 0 empty empty empty 17 7 0 10 -262144 -1 -1 1
1;
#X obj 240 6 tgl 15 0 empty empty empty 17 7 0 10 -262144 -1 -1 0 1
;
#X obj 98 88 tgl 15 0 empty empty empty 17 7 0 10 -262144 -1 -1 0 1
;
#X obj 95 6 tgl 15 0 empty empty empty 17 7 0 10 -262144 -1 -1 0 1
;
#X obj 270 7 r 2b8;
#X obj 125 7 r 2b16;
#X obj 125 93 s 2b16s;
#X obj 272 91 s 2b8s;
#X obj 396 316 tgl 15 0 empty empty empty 17 7 0 10 -262144 -1 -1 1
1;
#X obj 393 234 tgl 15 0 empty empty empty 17 7 0 10 -262144 -1 -1 0
1;
#X obj 245 315 tgl 15 0 empty empty empty 17 7 0 10 -262144 -1 -1 0
1;
#X obj 242 233 tgl 15 0 empty empty empty 17 7 0 10 -262144 -1 -1 0
1;
#X obj 100 315 tgl 15 0 empty empty empty 17 7 0 10 -262144 -1 -1 0
1;
#X obj 97 233 tgl 15 0 empty empty empty 17 7 0 10 -262144 -1 -1 0
1;
#X obj 126 123 r 1b16;
#X obj 127 263 ossia.remote pedale/bourdon/16, f 19;
#X obj 272 263 ossia.remote pedale/bourdon/8, f 18;
#X obj 423 264 ossia.remote pedale/flute/4, f 17;
#X obj 126 152 ossia.remote clavier1/bourdon/16, f 16;
#X obj 270 152 ossia.remote clavier1/bourdon/8, f 15;
#X obj 422 153 ossia.remote clavier1/flute/4, f 15;
#X obj 541 150 ossia.remote clavier1/quinte/223, f 17;
#X obj 681 150 ossia.remote clavier1/flute/2, f 16;
#X obj 125 36 ossia.remote clavier2/bourdon/16, f 16;
#X obj 270 36 ossia.remote clavier2/bourdon/8, f 15;
#X obj 421 37 ossia.remote clavier2/flute/4, f 15;
#X obj 540 34 ossia.remote clavier2/quinte/223, f 17;
#X obj 680 34 ossia.remote clavier2/flute/2, f 16;
#X obj 271 123 r 1b8;
#X obj 422 124 r 1b4;
#X obj 540 125 r 1b223;
#X obj 681 122 r 1b2;
#X obj 127 234 r pb16;
#X obj 272 234 r pb8;
#X obj 423 235 r pb4;
#X obj 128 313 s pb16s;
#X obj 273 313 s pb8s;
#X obj 424 314 s pb4s;
#X obj 127 205 s 1b16s;
#X obj 272 205 s 1b8s;
#X obj 423 206 s 1b4s;
#X obj 543 209 s 1b223s;
#X obj 682 194 s 1b2s;
#X obj 96 407 tgl 15 0 empty empty empty 17 7 0 10 -262144 -1 -1 0
1;
#X obj 99 354 tgl 15 0 empty empty empty 17 7 0 10 -262144 -1 -1 0
1;
#X obj 129 355 r activattac;
#X obj 346 345 r valattac;
#X obj 345 413 s valattacs;
#X obj 127 406 s activattacs;
#X obj 91 494 tgl 15 0 empty empty empty 17 7 0 10 -262144 -1 -1 0
1;
#X obj 94 441 tgl 15 0 empty empty empty 17 7 0 10 -262144 -1 -1 0
1;
#X obj 90 589 tgl 15 0 empty empty empty 17 7 0 10 -262144 -1 -1 0
1;
#X obj 94 536 tgl 15 0 empty empty empty 17 7 0 10 -262144 -1 -1 0
1;
#X obj 124 442 r activtranspo1;
#X obj 122 493 s activtranspo1s;
#X obj 342 438 r valtranspo1;
#X obj 338 502 s valtranspo1s;
#X obj 123 537 r activtranspo2;
#X obj 121 588 s activtranspo2s;
#X obj 340 527 r valtranspo2;
#X obj 339 598 s valtranspo2s;
#X floatatom 298 347 5 10 127 0 - - -;
#X floatatom 297 411 5 10 127 0 - - -;
#X floatatom 293 438 5 0 36 0 - - -;
#X floatatom 292 505 5 0 36 0 - - -;
#X floatatom 292 530 5 0 36 0 - - -;
#X floatatom 297 598 5 0 36 0 - - -;
#X obj 11 562 ossia.remote nfonctionscl2/transpo.2/activation;
#X obj 337 560 ossia.remote nfonctionscl2/transpo.2/valeur;
#X obj 29 466 ossia.remote nfonctionscl2/transpo.1/activation;
#X obj 341 470 ossia.remote nfonctionscl2/transpo.1/valeur;
#X obj 298 379 ossia.remote nfonctionscl2/attaque/duree;
#X obj 12 378 ossia.remote nfonctionscl2/attaque/activation;
#X connect 2 0 35 0;
#X connect 4 0 34 0;
#X connect 6 0 33 0;
#X connect 7 0 42 0;
#X connect 9 0 41 0;
#X connect 11 0 40 0;
#X connect 14 0 40 0;
#X connect 16 0 39 0;
#X connect 18 0 38 0;
#X connect 19 0 39 0;
#X connect 20 0 38 0;
#X connect 24 0 32 0;
#X connect 26 0 31 0;
#X connect 28 0 30 0;
#X connect 29 0 33 0;
#X connect 30 0 27 0;
#X connect 30 0 50 0;
#X connect 31 0 25 0;
#X connect 31 0 51 0;
#X connect 32 0 23 0;
#X connect 32 0 52 0;
#X connect 33 0 5 0;
#X connect 33 0 53 0;
#X connect 34 0 3 0;
#X connect 34 0 54 0;
#X connect 35 0 1 0;
#X connect 35 0 55 0;
#X connect 36 0 56 0;
#X connect 37 0 57 0;
#X connect 38 0 17 0;
#X connect 38 0 21 0;
#X connect 39 0 15 0;
#X connect 39 0 22 0;
#X connect 40 0 12 0;
#X connect 40 0 13 0;
#X connect 41 0 10 0;
#X connect 42 0 8 0;
#X connect 43 0 34 0;
#X connect 44 0 35 0;
#X connect 45 0 36 0;
#X connect 46 0 37 0;
#X connect 47 0 30 0;
#X connect 48 0 31 0;
#X connect 49 0 32 0;
#X connect 59 0 87 0;
#X connect 60 0 87 0;
#X connect 61 0 86 0;
#X connect 65 0 84 0;
#X connect 67 0 82 0;
#X connect 68 0 84 0;
#X connect 70 0 85 0;
#X connect 72 0 82 0;
#X connect 74 0 83 0;
#X connect 76 0 86 0;
#X connect 78 0 85 0;
#X connect 80 0 83 0;
#X connect 82 0 66 0;
#X connect 82 0 73 0;
#X connect 83 0 81 0;
#X connect 83 0 75 0;
#X connect 84 0 64 0;
#X connect 84 0 69 0;
#X connect 85 0 79 0;
#X connect 85 0 71 0;
#X connect 86 0 77 0;
#X connect 86 0 62 0;
#X connect 87 0 58 0;
#X connect 87 0 63 0;
#X restore 415 285 pd interfaces_registres;
#X connect 14 0 13 0;
#X connect 15 0 16 0;
#X connect 16 0 14 0;
