#N canvas 30 98 565 215 12;
#X obj 212 166 ossia.device modulorgue;
#N canvas 8 407 706 216 registres 1;
#X obj 590 118 tgl 15 0 empty empty empty 17 7 0 10 -262144 -1 -1 0
1;
#X obj 563 68 pack;
#X obj 563 141 sons;
#X obj 661 91 r sons;
#X obj 563 45 notein 2;
#X msg 563 92 note 1 \$1 \$2;
#X obj 63 44 ossia.model registres;
#N canvas 2 303 697 231 rang1 0;
#X obj 366 135 ctlout 22 15;
#X obj 464 134 ctlout 23 15;
#X obj 580 131 ctlout 24 15;
#X msg 14 124 note 2 \$1 \$2;
#X obj 14 99 pack;
#X obj 91 76 > 0;
#X floatatom 51 100 5 0 0 0 - - -;
#X obj 91 99 * 125;
#X obj 14 76 notein 2;
#X obj 221 185 b8;
#X obj 98 187 b16;
#X obj 581 75 ossia.param flute/2 @type bool, f 12;
#X obj 464 76 ossia.param quinte/223 @type bool, f 12;
#X obj 366 77 ossia.param flute/4 @type bool, f 12;
#X obj 264 136 ctlout 21 15;
#X obj 264 78 ossia.param bourdon/8 @type bool, f 12;
#X obj 148 77 ossia.param bourdon/16 @type bool, f 12;
#X obj 148 135 ctlout 20 15;
#X obj 13 25 ossia.model clavier2;
#X obj 314 202 tgl 15 0 empty empty empty 17 7 0 10 -262144 -1 -1 0
1;
#X connect 3 0 9 0;
#X connect 3 0 10 0;
#X connect 4 0 3 0;
#X connect 5 0 7 0;
#X connect 6 0 4 1;
#X connect 7 0 6 0;
#X connect 8 0 4 0;
#X connect 8 1 5 0;
#X connect 11 0 2 0;
#X connect 12 0 1 0;
#X connect 13 0 0 0;
#X connect 15 0 14 0;
#X connect 15 0 9 1;
#X connect 16 0 10 1;
#X connect 16 0 17 0;
#X connect 16 0 19 0;
#X restore 70 100 pd rang1;
#X obj 246 51 loadbang;
#X msg 387 36 \; pd dsp 1;
#X obj 315 50 delay 200;
#N canvas 32 62 801 176 rang2 0;
#X obj 175 107 ctlout 10 15;
#X obj 389 99 ctlout 12 15;
#X obj 487 97 ctlout 13 15;
#X obj 605 93 ctlout 14 15;
#X obj 25 36 notein 1;
#X obj 25 62 pack;
#X msg 25 83 note 1 \$1 \$2;
#X obj 102 36 > 0;
#X floatatom 62 60 5 0 0 0 - - -;
#X obj 102 59 * 125;
#X obj 238 144 b8;
#X obj 294 102 ctlout 11 15;
#X obj 27 137 b16;
#X obj 605 40 ossia.param flute/2 @type bool, f 12;
#X obj 488 41 ossia.param quinte/223 @type bool, f 12;
#X obj 390 42 ossia.param flute/4 @type bool, f 12;
#X obj 288 43 ossia.param bourdon/8 @type bool, f 12;
#X obj 172 42 ossia.param bourdon/16 @type bool, f 12;
#X obj 27 9 ossia.model clavier1;
#X connect 4 0 5 0;
#X connect 4 1 7 0;
#X connect 5 0 6 0;
#X connect 6 0 10 0;
#X connect 6 0 12 0;
#X connect 7 0 9 0;
#X connect 8 0 5 1;
#X connect 9 0 8 0;
#X connect 13 0 3 0;
#X connect 14 0 2 0;
#X connect 15 0 1 0;
#X connect 16 0 11 0;
#X connect 16 0 10 1;
#X connect 17 0 0 0;
#X connect 17 0 12 1;
#X restore 237 100 pd rang2;
#N canvas 49 268 690 239 rang3 0;
#X msg 31 89 note 3 \$1 \$2;
#X obj 186 99 ctlout 1 15;
#X obj 304 97 ctlout 2 15;
#X obj 406 90 ctlout 3 15;
#X obj 31 62 pack;
#X obj 108 39 > 0;
#X floatatom 68 63 5 0 0 0 - - -;
#X obj 108 62 * 125;
#X obj 31 39 notein 3;
#X obj 269 137 b8;
#X obj 94 135 b16;
#X obj 404 25 ossia.param flute/4 @type bool, f 12;
#X obj 302 26 ossia.param bourdon/8 @type bool, f 12;
#X obj 186 25 ossia.param bourdon/16 @type bool, f 12;
#X obj 31 3 ossia.model pedale;
#X connect 0 0 9 0;
#X connect 0 0 10 0;
#X connect 4 0 0 0;
#X connect 5 0 7 0;
#X connect 6 0 4 1;
#X connect 7 0 6 0;
#X connect 8 0 4 0;
#X connect 8 1 5 0;
#X connect 11 0 3 0;
#X connect 12 0 2 0;
#X connect 12 0 9 1;
#X connect 13 0 1 0;
#X connect 13 0 10 1;
#X restore 417 104 pd rang3;
#N canvas 84 98 1026 539 nfonctions 0;
#X obj 217 100 ctlin 40 11;
#X obj 217 125 > 0;
#X floatatom 218 176 5 0 0 0 - - -;
#X obj 216 199 ctlout 40 11;
#X obj 815 241 ctlin 42 11;
#X obj 842 365 ctlout 42 11;
#X obj 217 152 tgl 15 0 activtranspo1 activtranspo1s empty 17 7 0 10
-262144 -1 -1 0 1;
#X obj 430 126 > 0;
#X obj 507 190 ctlout 41 11;
#X obj 217 248 ctlin 43 11;
#X obj 217 335 ctlout 43 11;
#X obj 462 239 ctlin 44 11;
#X obj 530 397 ctlout 44 11;
#X obj 352 -4 loadbang;
#X obj 352 24 delay 10;
#X obj 259 177 sel 0;
#X msg 258 223 127;
#X obj 560 166 sel 0;
#X msg 552 216 127;
#X obj 227 282 sel 1;
#X obj 519 270 sel 1;
#X obj 813 130 > 0;
#X obj 813 102 ctlin 45 11;
#X obj 771 215 sel 0;
#X msg 768 246 0;
#X obj 828 215 sel 1;
#X obj 761 324 spigot;
#X floatatom 783 376 5 0 0 0 - - -;
#X obj 907 212 bng 15 250 50 0 empty empty empty 17 7 0 10 -262144
-1 -1;
#X obj 952 211 delay 50;
#X obj 813 158 tgl 15 0 activattac activattacs empty 17 7 0 10 -262144
-1 -1 0 1;
#X text 842 155 activation attaque;
#X text 880 287 valeur attaque;
#X text 523 146 activation transpo2;
#X text 258 309 valeur transpo1;
#X text 240 146 activation transpo1;
#X text 548 297 valeur transpo2;
#X obj 704 65 ossia.param activation/attaque @type bool;
#X obj 3 67 ossia.param activation/transpo1 @type bool;
#X obj 30 369 ossia.param valeur/transpo1 @type float;
#X obj 723 405 ossia.param valeur/attaque @type float;
#X floatatom 209 309 5 0 36 0 - - -;
#X floatatom 838 287 5 10 127 0 - - -;
#X obj 13 25 ossia.model nfonctionscl2;
#X obj 372 67 ossia.param transpo.2/activation @type bool;
#X obj 512 15 tgl 15 0 empty empty empty 17 7 0 10 -262144 -1 -1 0
1;
#X obj 408 221 tgl 15 0 empty empty empty 17 7 0 10 -262144 -1 -1 0
1;
#X floatatom 411 306 5 0 36 0 - - -;
#X obj 499 336 int;
#X obj 402 426 ossia.param transpo.2/valeur @type int @range 0 127
@unit midinote @description "la valeur de transposition pour le clavier
2", f 38;
#X connect 0 0 1 0;
#X connect 1 0 6 0;
#X connect 2 0 3 0;
#X connect 2 0 15 0;
#X connect 4 0 26 0;
#X connect 4 0 42 0;
#X connect 6 0 19 0;
#X connect 6 0 2 0;
#X connect 7 0 8 0;
#X connect 7 0 17 0;
#X connect 7 0 20 0;
#X connect 7 0 46 0;
#X connect 9 0 41 0;
#X connect 11 0 48 0;
#X connect 13 0 14 0;
#X connect 14 0 16 0;
#X connect 14 0 18 0;
#X connect 14 0 24 0;
#X connect 15 0 16 0;
#X connect 16 0 10 0;
#X connect 17 0 18 0;
#X connect 18 0 12 0;
#X connect 19 0 41 0;
#X connect 20 0 48 0;
#X connect 21 0 30 0;
#X connect 22 0 21 0;
#X connect 23 0 24 0;
#X connect 24 0 5 0;
#X connect 24 0 26 1;
#X connect 25 0 28 0;
#X connect 26 0 27 0;
#X connect 26 0 5 0;
#X connect 28 0 29 0;
#X connect 29 0 42 0;
#X connect 30 0 23 0;
#X connect 30 0 25 0;
#X connect 30 0 26 1;
#X connect 37 0 30 0;
#X connect 38 0 6 0;
#X connect 39 0 41 0;
#X connect 40 0 42 0;
#X connect 41 0 10 0;
#X connect 42 0 26 0;
#X connect 44 0 7 0;
#X connect 45 0 44 0;
#X connect 47 0 49 0;
#X connect 48 0 12 0;
#X connect 49 0 48 0;
#X restore 73 167 pd nfonctions;
#X connect 0 0 2 1;
#X connect 1 0 5 0;
#X connect 3 0 0 0;
#X connect 4 0 1 0;
#X connect 4 1 1 1;
#X connect 5 0 2 0;
#X connect 8 0 10 0;
#X connect 10 0 9 0;
#X restore 14 151 pd registres;
#X obj 210 108 loadbang;
#X msg 215 139 expose oscquery;
#X msg 307 95 namespace;
#X msg 32 24 save mem1;
#X msg 123 28 save mem2;
#X msg 224 31 load mem1;
#X msg 305 34 load mem2;
#X obj 212 190 print;
#X obj 137 80 list prepend preset;
#X obj 131 110 list trim;
#X obj 428 90 ggee/shell;
#X msg 419 40 ls /media/pi;
#X obj 432 126 print;
#X msg 363 67 ls /media/pi/BALT, f 25;
#X connect 0 0 9 0;
#X connect 2 0 3 0;
#X connect 3 0 0 0;
#X connect 4 0 0 0;
#X connect 5 0 10 0;
#X connect 6 0 10 0;
#X connect 7 0 10 0;
#X connect 8 0 10 0;
#X connect 10 0 11 0;
#X connect 11 0 0 0;
#X connect 12 0 14 0;
#X connect 12 1 14 0;
#X connect 13 0 12 0;
#X connect 15 0 12 0;
