#N canvas 46 0 610 878 12;
#X obj 123 32 tgl 100 0 2b8 empty BOURDON_8' 11 -8 1 13 -72168 -66577
-66577 0 1;
#X obj 235 32 tgl 100 0 2b4 2b4s FLUTE_4' 21 -8 1 13 -72168 -66577
-66577 0 1;
#X obj 348 32 tgl 100 0 2b223 2b223s QUINTE_2'_2/3 6 -8 1 13 -72168
-66577 -66577 0 1;
#X obj 460 32 tgl 100 0 2b2 2b2s FLUTE_2 20 -8 1 13 -72168 -66577 -66577
0 1;
#X obj 12 32 tgl 100 0 2b16 empty BOURDON_16' 8 -8 1 13 -72168 -66577
-66577 0 1;
#X obj 123 158 tgl 100 0 1b8 empty BOURDON_8' 11 -8 1 13 -72168 -66577
-66577 0 1;
#X obj 235 158 tgl 100 0 1b4 empty FLUTE_4' 21 -8 1 13 -72168 -66577
-66577 0 1;
#X obj 348 158 tgl 100 0 1b223 empty QUINTE_2'_2/3 6 -8 1 13 -72168
-66577 -66577 0 1;
#X obj 460 158 tgl 100 0 1b2 empty FLUTE_2 20 -8 1 13 -72168 -66577
-66577 0 1;
#X obj 12 158 tgl 100 0 1b16 empty BOURDON_16' 8 -8 1 13 -72168 -66577
-66577 0 1;
#X obj 123 287 tgl 100 0 pb8 empty BOURDON_8' 11 -8 1 13 -72168 -66577
-66577 0 1;
#X obj 235 287 tgl 100 0 pb4 empty FLUTE_4' 21 -8 1 13 -72168 -66577
-66577 0 1;
#X obj 12 287 tgl 100 0 pb16 empty BOURDON_16' 8 -8 1 13 -72168 -66577
-66577 0 1;
#X obj 230 566 ossia.device modulorgue;
#N canvas 441 247 918 502 registres 1;
#X obj 74 183 ctlin 40 11;
#X obj 74 208 > 0;
#X floatatom 75 259 5 0 0 0 - - -;
#X obj 73 282 ctlout 40 11;
#X obj 472 321 ctlin 42 11;
#X obj 485 412 ctlout 42 11;
#X floatatom 496 365 5 0 0 0 - - -;
#X obj 74 231 tgl 15 0 empty empty empty 17 7 0 10 -262144 -1 -1 0
1;
#X obj 318 224 > 0;
#X floatatom 317 270 5 0 0 0 - - -;
#X obj 318 247 tgl 15 0 empty empty empty 17 7 0 10 -262144 -1 -1 0
1;
#X obj 320 182 ctlin 41 11;
#X obj 317 291 ctlout 41 11;
#X floatatom 74 391 5 0 0 0 - - -;
#X obj 74 331 ctlin 43 11;
#X obj 74 418 ctlout 43 11;
#X floatatom 316 397 5 0 0 0 - - -;
#X obj 316 346 ctlin 44 11;
#X obj 315 420 ctlout 44 11;
#X obj 227 184 loadbang;
#X obj 227 204 delay 10;
#X obj 192 179 bng 15 250 50 0 empty empty empty 17 7 0 10 -262144
-1 -1;
#X obj 116 260 sel 0;
#X msg 115 306 127;
#X obj 370 267 sel 0;
#X msg 362 317 127;
#X obj 84 365 sel 1;
#X obj 329 371 sel 1;
#X obj 470 265 > 0;
#X obj 473 241 ctlin 45 11;
#X obj 428 295 sel 0;
#X msg 425 326 0;
#X obj 469 295 sel 1;
#X obj 684 250 tgl 15 0 empty empty empty 17 7 0 10 -262144 -1 -1 0
1;
#X obj 657 200 pack;
#X obj 657 273 sons;
#X obj 755 223 r sons;
#X obj 657 177 notein 2;
#X msg 657 224 note 1 \$1 \$2;
#X obj 403 375 spigot;
#X floatatom 443 421 5 0 0 0 - - -;
#X floatatom 576 376 5 0 0 0 - - -;
#X obj 585 348 bng 15 250 50 0 empty empty empty 17 7 0 10 -262144
-1 -1;
#X obj 542 286 delay 50;
#X obj 63 44 ossia.model registres;
#N canvas 495 432 1164 301 rang1 1;
#X obj 113 110 tgl 15 0 empty empty empty 17 7 0 10 -262144 -1 -1 0
1;
#X obj 114 132 ctlout 20 15;
#X obj 242 110 tgl 15 0 empty empty empty 17 7 0 10 -262144 -1 -1 0
1;
#X obj 244 131 ctlout 21 15;
#X obj 536 157 ctlout 22 15;
#X obj 647 157 ctlout 23 15;
#X obj 763 154 ctlout 24 15;
#X obj 183 85 r 2b16;
#X obj 244 86 r 2b8;
#X msg 86 86 note 2 \$1 \$2;
#X obj 86 61 pack;
#X obj 163 38 > 0;
#X floatatom 123 62 5 0 0 0 - - -;
#X obj 163 61 * 125;
#X obj 86 38 notein 2;
#X obj 216 131 b8;
#X obj 86 132 b16;
#X obj 629 45 ossia.model rang1;
#X obj 764 98 ossia.param flute/2 @type bool, f 12;
#X obj 647 99 ossia.param quinte/223 @type bool, f 12;
#X obj 536 99 ossia.param flute/4 @type bool, f 12;
#X connect 0 0 1 0;
#X connect 0 0 16 1;
#X connect 2 0 3 0;
#X connect 2 0 15 1;
#X connect 7 0 0 0;
#X connect 8 0 2 0;
#X connect 9 0 15 0;
#X connect 9 0 16 0;
#X connect 10 0 9 0;
#X connect 11 0 13 0;
#X connect 12 0 10 1;
#X connect 13 0 12 0;
#X connect 14 0 10 0;
#X connect 14 1 11 0;
#X connect 18 0 6 0;
#X connect 19 0 5 0;
#X connect 20 0 4 0;
#X restore 70 100 pd rang1;
#X obj 246 51 loadbang;
#X msg 387 36 \; pd dsp 1;
#X obj 315 50 delay 200;
#X obj 483 32 ctlin 0 10;
#X floatatom 483 57 5 0 0 0 - - -;
#N canvas 57 343 848 300 rang2 0;
#X obj 58 106 tgl 15 0 empty empty empty 17 7 0 10 -262144 -1 -1 0
1;
#X obj 187 106 tgl 15 0 empty empty empty 17 7 0 10 -262144 -1 -1 0
1;
#X obj 295 105 tgl 15 0 empty empty empty 17 7 0 10 -262144 -1 -1 0
1;
#X obj 391 104 tgl 15 0 empty empty empty 17 7 0 10 -262144 -1 -1 0
1;
#X obj 491 104 tgl 15 0 empty empty empty 17 7 0 10 -262144 -1 -1 0
1;
#X obj 59 128 ctlout 10 15;
#X obj 297 126 ctlout 12 15;
#X obj 393 125 ctlout 13 15;
#X obj 493 125 ctlout 14 15;
#X obj 128 79 r 1b16;
#X obj 189 80 r 1b8;
#X obj 297 80 r 1b4;
#X obj 393 80 r 1b223;
#X obj 493 78 r 1b2;
#X obj 31 33 notein 1;
#X obj 31 56 pack;
#X msg 31 80 note 1 \$1 \$2;
#X obj 108 33 > 0;
#X floatatom 68 57 5 0 0 0 - - -;
#X obj 108 56 * 125;
#X obj 161 127 b8;
#X obj 189 127 ctlout 11 15;
#X obj 31 128 b16;
#X connect 0 0 5 0;
#X connect 0 0 22 1;
#X connect 1 0 20 1;
#X connect 1 0 21 0;
#X connect 2 0 6 0;
#X connect 3 0 7 0;
#X connect 4 0 8 0;
#X connect 9 0 0 0;
#X connect 10 0 1 0;
#X connect 11 0 2 0;
#X connect 12 0 3 0;
#X connect 13 0 4 0;
#X connect 14 0 15 0;
#X connect 14 1 17 0;
#X connect 15 0 16 0;
#X connect 16 0 20 0;
#X connect 16 0 22 0;
#X connect 17 0 19 0;
#X connect 18 0 15 1;
#X connect 19 0 18 0;
#X restore 237 100 pd rang2;
#N canvas 0 50 455 232 rang3 1;
#X obj 60 101 tgl 15 0 empty empty empty 17 7 0 10 -262144 -1 -1 0
1;
#X obj 189 101 tgl 15 0 empty empty empty 17 7 0 10 -262144 -1 -1 0
1;
#X obj 297 100 tgl 15 0 empty empty empty 17 7 0 10 -262144 -1 -1 0
1;
#X msg 32 75 note 3 \$1 \$2;
#X obj 129 74 r pb16;
#X obj 190 75 r pb8;
#X obj 298 75 r pb4;
#X obj 60 123 ctlout 1 15;
#X obj 190 122 ctlout 2 15;
#X obj 298 121 ctlout 3 15;
#X obj 32 48 pack;
#X obj 109 25 > 0;
#X floatatom 69 49 5 0 0 0 - - -;
#X obj 109 48 * 125;
#X obj 32 25 notein 3;
#X obj 162 122 b8;
#X obj 32 123 b16;
#X connect 0 0 7 0;
#X connect 0 0 16 1;
#X connect 1 0 8 0;
#X connect 1 0 15 1;
#X connect 2 0 9 0;
#X connect 3 0 15 0;
#X connect 3 0 16 0;
#X connect 4 0 0 0;
#X connect 5 0 1 0;
#X connect 6 0 2 0;
#X connect 10 0 3 0;
#X connect 11 0 13 0;
#X connect 12 0 10 1;
#X connect 13 0 12 0;
#X connect 14 0 10 0;
#X connect 14 1 11 0;
#X restore 417 104 pd rang3;
#X connect 0 0 1 0;
#X connect 1 0 7 0;
#X connect 2 0 3 0;
#X connect 2 0 22 0;
#X connect 4 0 6 0;
#X connect 4 0 39 0;
#X connect 6 0 39 0;
#X connect 7 0 26 0;
#X connect 7 0 2 0;
#X connect 8 0 10 0;
#X connect 9 0 12 0;
#X connect 9 0 24 0;
#X connect 10 0 27 0;
#X connect 10 0 9 0;
#X connect 11 0 8 0;
#X connect 13 0 15 0;
#X connect 14 0 13 0;
#X connect 16 0 18 0;
#X connect 17 0 16 0;
#X connect 19 0 20 0;
#X connect 20 0 23 0;
#X connect 20 0 25 0;
#X connect 21 0 20 0;
#X connect 21 0 31 0;
#X connect 22 0 23 0;
#X connect 23 0 15 0;
#X connect 24 0 25 0;
#X connect 25 0 18 0;
#X connect 26 0 13 0;
#X connect 27 0 16 0;
#X connect 28 0 30 0;
#X connect 28 0 32 0;
#X connect 28 0 39 1;
#X connect 29 0 28 0;
#X connect 30 0 31 0;
#X connect 31 0 5 0;
#X connect 31 0 39 1;
#X connect 32 0 42 0;
#X connect 33 0 35 1;
#X connect 34 0 38 0;
#X connect 36 0 33 0;
#X connect 37 0 34 0;
#X connect 37 1 34 1;
#X connect 38 0 35 0;
#X connect 39 0 40 0;
#X connect 39 0 5 0;
#X connect 42 0 43 0;
#X connect 43 0 6 0;
#X connect 46 0 48 0;
#X connect 48 0 47 0;
#X connect 49 0 50 0;
#X restore 26 466 pd registres;
#X obj 228 508 loadbang;
#X msg 231 539 expose oscquery;
#N canvas 626 37 1092 372 interfaces 1;
#X obj 689 130 r 2b2;
#X obj 690 202 s 2b2s;
#X obj 80 61 ossia.view registres;
#X obj 689 158 ossia.remote rang1/flute/2, f 16;
#X obj 548 133 r 2b223;
#X obj 549 202 s 2b223s;
#X obj 549 158 ossia.remote rang1/quinte/223, f 17;
#X obj 430 132 r 2b4;
#X obj 431 211 s 2b4s;
#X obj 403 213 tgl 15 0 empty empty empty 17 7 0 10 -262144 -1 -1 0
1;
#X obj 400 131 tgl 15 0 empty empty empty 17 7 0 10 -262144 -1 -1 0
1;
#X obj 430 161 ossia.remote rang1/flute/4, f 15;
#X connect 0 0 3 0;
#X connect 3 0 1 0;
#X connect 4 0 6 0;
#X connect 6 0 5 0;
#X connect 7 0 11 0;
#X connect 10 0 11 0;
#X connect 11 0 8 0;
#X connect 11 0 9 0;
#X restore 33 497 pd interfaces;
#X msg 419 529 namespace;
#X msg 50 424 save mem1;
#X msg 141 428 save mem2;
#X msg 242 431 load mem1;
#X msg 323 434 load mem2;
#X obj 227 623 print;
#X obj 155 480 list prepend preset;
#X obj 149 510 list trim;
#N canvas 459 41 450 300 nfonctions 1;
#X restore 37 559 pd nfonctions;
#X connect 13 0 23 0;
#X connect 15 0 16 0;
#X connect 16 0 13 0;
#X connect 18 0 13 0;
#X connect 19 0 24 0;
#X connect 20 0 24 0;
#X connect 21 0 24 0;
#X connect 22 0 24 0;
#X connect 24 0 25 0;
#X connect 25 0 13 0;
