#N canvas 58 22 266 132 12;
#X obj 24 69 ossia.device modulorgue;
#X obj 138 15 loadbang, f 9;
#X msg 138 43 expose oscquery;
#X obj 24 93 print;
#N canvas 58 177 230 474 combinateurs 1;
#X obj 18 433 outlet;
#X msg 46 340 save mem2;
#X msg 125 321 load mem1;
#X msg 135 346 load mem2;
#X obj 18 379 list prepend preset;
#X obj 18 403 list trim;
#X msg 99 405 namespace;
#X obj 98 431 r toDevice;
#X obj 116 87 ossia.model combinateurs, f 13;
#N canvas 490 26 449 606 supports 1;
#X obj 24 154 ggee/shell, f 16;
#X obj 183 178 text define media;
#X obj 25 119 t a b, f 23;
#X msg 183 153 clear;
#X obj 22 251 text set media;
#X obj 23 182 t a b, f 6;
#X msg 62 214 1e+15;
#X obj 23 213 list;
#X obj 133 178 sel 0;
#X obj 132 315 text sequence media;
#X obj 132 349 print media;
#X msg 212 283 line 0;
#X obj 291 316 text size media;
#X obj 133 251 t b b b, f 23;
#X msg 291 422 max \$1;
#X obj 291 396 - 1;
#X obj 123 491 text get media;
#X obj 291 344 ossia.param nombre @type int, f 16;
#X obj 124 454 ossia.param numeroSupportChoisi @type int;
#X obj 243 80 ossia.model supports;
#X msg 96 81 ls /Volumes;
#X obj 123 560 outlet;
#X obj 96 24 ossia.param rafraichirListe @type impulse;
#X floatatom 45 492 5 0 0 0 - - -;
#X floatatom 150 395 5 0 0 0 - - -;
#N canvas 562 57 277 271 OS 0;
#X obj 21 19 inlet;
#X obj 102 231 outlet;
#X obj 21 91 sel Mac rPi Win, f 35;
#X msg 101 195 set ls \$1;
#X msg 101 128 /media/pi;
#X msg 21 128 /Volumes;
#X obj 21 56 symbol;
#X obj 101 163 list;
#X obj 26 225 s OS;
#X connect 0 0 6 0;
#X connect 2 0 5 0;
#X connect 2 1 4 0;
#X connect 3 0 1 0;
#X connect 4 0 7 0;
#X connect 5 0 7 0;
#X connect 6 0 2 0;
#X connect 7 0 3 0;
#X connect 7 0 8 0;
#X restore 31 52 pd OS;
#X obj 31 24 inlet;
#X obj 123 530 ossia.param nomSupportChoisi @type symbol;
#X connect 0 0 5 0;
#X connect 0 1 8 0;
#X connect 2 0 0 0;
#X connect 2 1 3 0;
#X connect 3 0 1 0;
#X connect 5 0 7 0;
#X connect 5 1 6 0;
#X connect 6 0 4 1;
#X connect 7 0 4 0;
#X connect 8 0 13 0;
#X connect 9 0 10 0;
#X connect 11 0 9 0;
#X connect 12 0 17 0;
#X connect 13 0 9 0;
#X connect 13 1 11 0;
#X connect 13 2 12 0;
#X connect 14 0 18 0;
#X connect 15 0 14 0;
#X connect 16 0 27 0;
#X connect 17 0 15 0;
#X connect 18 0 16 0;
#X connect 18 0 23 0;
#X connect 20 0 2 0;
#X connect 22 0 20 0;
#X connect 24 0 18 0;
#X connect 25 0 20 0;
#X connect 26 0 25 0;
#X connect 27 0 21 0;
#X restore 23 77 pd supports;
#N canvas 61 134 428 598 niveaux 1;
#X obj 37 37 inlet;
#X obj 36 9 ossia.model niveaux;
#X obj 174 509 outlet;
#X obj 131 37 r OS;
#X obj 37 75 list prepend, f 14;
#X obj 87 405 spigot;
#X obj 135 267 symbol;
#X obj 118 169 ggee/shell, f 16;
#X obj 135 300 sel CombinateursModulorgue;
#X obj 242 272 sel 0;
#X msg 102 334 0;
#X obj 27 490 print;
#X obj 86 437 t b b;
#X msg 131 436 0;
#X obj 226 386 print shell;
#X msg 37 102 mkdir \$1/\$2/CombinateursModulorgue;
#X obj 38 132 t a a, f 12;
#X obj 37 207 ggee/shell, f 16;
#X msg 38 166 ls \$2;
#X connect 0 0 4 0;
#X connect 3 0 4 1;
#X connect 4 0 15 0;
#X connect 5 0 12 0;
#X connect 6 0 8 0;
#X connect 7 0 6 0;
#X connect 7 0 14 0;
#X connect 7 1 9 0;
#X connect 7 1 14 0;
#X connect 8 0 10 0;
#X connect 9 0 5 0;
#X connect 10 0 5 1;
#X connect 10 0 11 0;
#X connect 12 0 11 0;
#X connect 12 1 13 0;
#X connect 13 0 5 1;
#X connect 15 0 16 0;
#X connect 16 0 18 0;
#X connect 16 1 7 0;
#X connect 17 0 11 0;
#X connect 18 0 17 0;
#X restore 23 104 pd niveaux;
#X msg 23 47 Mac;
#X msg 70 48 rPi;
#X obj 23 12 loadbang;
#X text 21 275 niveau série combinaison;
#X msg 123 48 Win, f 4;
#X msg 19 251 save /Users/bltzr/mem1.json;
#X connect 1 0 4 0;
#X connect 2 0 4 0;
#X connect 3 0 4 0;
#X connect 4 0 5 0;
#X connect 5 0 0 0;
#X connect 6 0 0 0;
#X connect 7 0 0 0;
#X connect 9 0 10 0;
#X connect 11 0 9 0;
#X connect 12 0 9 0;
#X connect 13 0 11 0;
#X connect 15 0 9 0;
#X connect 16 0 4 0;
#X restore 24 41 pd combinateurs;
#N canvas 59 180 566 364 registres 0;
#X obj 434 78 tgl 15 0 empty empty empty 17 7 0 10 -262144 -1 -1 0
1;
#X obj 404 26 pack;
#X obj 404 99 sons;
#X obj 502 49 r sons;
#X obj 404 3 notein 2;
#X msg 404 50 note 1 \$1 \$2;
#X obj 9 14 ossia.model registres;
#N canvas 823 67 697 231 rang1 0;
#X obj 353 91 ctlout 22 15;
#X obj 451 90 ctlout 23 15;
#X obj 549 89 ctlout 24 15;
#X msg 8 81 note 2 \$1 \$2;
#X obj 8 56 pack;
#X obj 85 33 > 0;
#X floatatom 45 57 5 0 0 0 - - -;
#X obj 85 56 * 125;
#X obj 8 33 notein 2;
#X obj 200 133 b8;
#X obj 77 135 b16;
#X obj 550 33 ossia.param flute/2 @type bool, f 12;
#X obj 451 32 ossia.param quinte/223 @type bool, f 12;
#X obj 353 33 ossia.param flute/4 @type bool, f 12;
#X obj 255 90 ctlout 21 15;
#X obj 255 32 ossia.param bourdon/8 @type bool, f 12;
#X obj 140 34 ossia.param bourdon/16 @type bool, f 12;
#X obj 140 92 ctlout 20 15;
#X obj 8 6 ossia.model clavier2;
#X obj 260 140 tgl 15 0 empty empty empty 17 7 0 10 -262144 -1 -1 0
1;
#X connect 3 0 9 0;
#X connect 3 0 10 0;
#X connect 4 0 3 0;
#X connect 5 0 7 0;
#X connect 6 0 4 1;
#X connect 7 0 6 0;
#X connect 8 0 4 0;
#X connect 8 1 5 0;
#X connect 11 0 2 0;
#X connect 12 0 1 0;
#X connect 13 0 0 0;
#X connect 15 0 14 0;
#X connect 15 0 9 1;
#X connect 16 0 10 1;
#X connect 16 0 17 0;
#X connect 16 0 19 0;
#X restore 9 41 pd rang1;
#X obj 177 17 loadbang;
#X msg 318 2 \; pd dsp 1;
#X obj 246 16 delay 200;
#N canvas 301 364 801 176 rang2 0;
#X obj 175 107 ctlout 10 15;
#X obj 389 99 ctlout 12 15;
#X obj 487 97 ctlout 13 15;
#X obj 605 93 ctlout 14 15;
#X obj 25 36 notein 1;
#X obj 25 62 pack;
#X msg 25 83 note 1 \$1 \$2;
#X obj 102 36 > 0;
#X floatatom 62 60 5 0 0 0 - - -;
#X obj 102 59 * 125;
#X obj 238 144 b8;
#X obj 294 102 ctlout 11 15;
#X obj 27 137 b16;
#X obj 605 40 ossia.param flute/2 @type bool, f 12;
#X obj 488 41 ossia.param quinte/223 @type bool, f 12;
#X obj 390 42 ossia.param flute/4 @type bool, f 12;
#X obj 288 43 ossia.param bourdon/8 @type bool, f 12;
#X obj 172 42 ossia.param bourdon/16 @type bool, f 12;
#X obj 27 9 ossia.model clavier1;
#X connect 4 0 5 0;
#X connect 4 1 7 0;
#X connect 5 0 6 0;
#X connect 6 0 10 0;
#X connect 6 0 12 0;
#X connect 7 0 9 0;
#X connect 8 0 5 1;
#X connect 9 0 8 0;
#X connect 13 0 3 0;
#X connect 14 0 2 0;
#X connect 15 0 1 0;
#X connect 16 0 11 0;
#X connect 16 0 10 1;
#X connect 17 0 0 0;
#X connect 17 0 12 1;
#X restore 9 64 pd rang2;
#N canvas 49 268 690 239 rang3 0;
#X msg 31 89 note 3 \$1 \$2;
#X obj 186 99 ctlout 1 15;
#X obj 304 97 ctlout 2 15;
#X obj 406 90 ctlout 3 15;
#X obj 31 62 pack;
#X obj 108 39 > 0;
#X floatatom 68 63 5 0 0 0 - - -;
#X obj 108 62 * 125;
#X obj 31 39 notein 3;
#X obj 269 137 b8;
#X obj 94 135 b16;
#X obj 404 25 ossia.param flute/4 @type bool, f 12;
#X obj 302 26 ossia.param bourdon/8 @type bool, f 12;
#X obj 186 25 ossia.param bourdon/16 @type bool, f 12;
#X obj 31 3 ossia.model pedale;
#X connect 0 0 9 0;
#X connect 0 0 10 0;
#X connect 4 0 0 0;
#X connect 5 0 7 0;
#X connect 6 0 4 1;
#X connect 7 0 6 0;
#X connect 8 0 4 0;
#X connect 8 1 5 0;
#X connect 11 0 3 0;
#X connect 12 0 2 0;
#X connect 12 0 9 1;
#X connect 13 0 1 0;
#X connect 13 0 10 1;
#X restore 9 89 pd rang3;
#N canvas 43 161 1139 539 nfonctions 0;
#X obj 7 108 > 0;
#X obj 35 213 ctlout 40 11;
#X obj 842 365 ctlout 42 11;
#X obj 374 115 > 0;
#X obj 386 206 ctlout 41 11;
#X obj 135 332 ctlout 43 11;
#X obj 473 356 ctlout 44 11;
#X obj 352 -4 loadbang;
#X obj 352 24 delay 10;
#X obj 135 186 sel 0;
#X msg 135 250 127;
#X obj 497 194 sel 0;
#X msg 455 243 127;
#X obj 9 239 sel 1;
#X obj 379 235 sel 1;
#X obj 762 177 sel 0;
#X msg 819 280 0;
#X obj 825 141 sel 1;
#X obj 761 324 spigot;
#X floatatom 834 428 5 0 0 0 - - -;
#X obj 825 171 bng 15 250 50 0 empty empty empty 17 7 0 10 -262144
-1 -1;
#X obj 825 194 delay 50;
#X text 868 93 activation attaque;
#X text 881 427 valeur attaque;
#X text 543 90 activation transpo2;
#X text 174 419 valeur transpo1;
#X text 171 89 activation transpo1;
#X text 529 422 valeur transpo2;
#X obj 13 25 ossia.model nfonctionscl2;
#X obj 372 67 ossia.param transpo.2/activation @type bool;
#X obj 528 95 tgl 15 0 empty empty empty 17 7 0 10 -262144 -1 -1 0
1;
#X obj 440 320 int;
#X obj 3 67 ossia.param transpo.1/activation @type bool;
#X obj 368 449 ossia.param transpo.2/valeur @type int @range 0 36 @unit
midinote @description "valeur de transposition 2 pour clavier 2",
f 38;
#X obj 91 299 int;
#X obj 9 448 ossia.param transpo.1/valeur @type int @range 0 36 @unit
midinote @description "valeur de transposition 1 pour clavier 2",
f 38;
#X obj 150 92 tgl 15 0 empty empty empty 17 7 0 10 -262144 -1 -1 0
1;
#X obj 846 93 tgl 15 0 empty empty empty 17 7 0 10 -262144 -1 -1 0
1;
#X obj 748 292 int;
#X floatatom 124 418 5 0 0 0 - - -;
#X floatatom 469 425 5 0 0 0 - - -;
#X obj 700 456 ossia.param attaque/duree @type int @range 0 127 @unit
ms @description "duree attaque pour les transpos actives du clavier2"
;
#X obj 704 65 ossia.param attaque/activation @type bool;
#X connect 0 0 13 0;
#X connect 0 0 9 0;
#X connect 0 0 1 0;
#X connect 0 0 36 0;
#X connect 3 0 4 0;
#X connect 3 0 11 0;
#X connect 3 0 14 0;
#X connect 3 0 30 0;
#X connect 7 0 8 0;
#X connect 8 0 10 0;
#X connect 8 0 12 0;
#X connect 8 0 16 0;
#X connect 9 0 10 0;
#X connect 10 0 5 0;
#X connect 10 0 39 0;
#X connect 11 0 12 0;
#X connect 12 0 6 0;
#X connect 12 0 40 0;
#X connect 13 0 34 0;
#X connect 14 0 31 0;
#X connect 15 0 16 0;
#X connect 16 0 2 0;
#X connect 16 0 18 1;
#X connect 16 0 19 0;
#X connect 17 0 20 0;
#X connect 18 0 19 0;
#X connect 18 0 2 0;
#X connect 20 0 21 0;
#X connect 21 0 38 0;
#X connect 29 0 3 0;
#X connect 31 0 6 0;
#X connect 31 0 40 0;
#X connect 32 0 0 0;
#X connect 33 0 31 0;
#X connect 34 0 5 0;
#X connect 34 0 39 0;
#X connect 35 0 34 0;
#X connect 38 0 18 0;
#X connect 41 0 38 0;
#X connect 42 0 18 1;
#X connect 42 0 15 0;
#X connect 42 0 17 0;
#X connect 42 0 37 0;
#X restore 9 115 pd nfonctions;
#X obj 12 181 loadbang;
#X obj 12 207 delay 10;
#X msg 12 238 64;
#X obj 12 264 ctlout 127 1;
#X obj 60 238 ossia.param transpogenerale;
#X floatatom 11 294 5 0 0 0 - - -;
#X text 55 294 transposition generale;
#X connect 0 0 2 1;
#X connect 1 0 5 0;
#X connect 3 0 0 0;
#X connect 4 0 1 0;
#X connect 4 1 1 1;
#X connect 5 0 2 0;
#X connect 8 0 10 0;
#X connect 10 0 9 0;
#X connect 14 0 15 0;
#X connect 15 0 16 0;
#X connect 16 0 17 0;
#X connect 16 0 19 0;
#X connect 18 0 17 0;
#X connect 18 0 19 0;
#X restore 24 16 pd registres;
#X connect 0 0 3 0;
#X connect 1 0 2 0;
#X connect 2 0 0 0;
#X connect 4 0 0 0;
