#N canvas 484 327 279 125 12;
#X obj 24 69 ossia.device modulorgue;
#X obj 138 15 loadbang, f 9;
#X msg 138 43 expose oscquery;
#X obj 24 93 print;
#N canvas 768 118 493 301 registres 1;
#X obj 9 14 ossia.model registres;
#N canvas 311 260 768 350 rang1 1;
#X obj 358 108 ctlout 22 15;
#X obj 454 109 ctlout 23 15;
#X obj 548 107 ctlout 24 15;
#X msg 7 103 note 2 \$1 \$2;
#X obj 7 78 pack;
#X obj 85 54 > 0;
#X floatatom 44 79 5 0 0 0 - - -;
#X obj 84 78 * 125;
#X obj 7 28 notein 2;
#X obj 225 135 b8;
#X obj 77 135 b16;
#X obj 549 51 ossia.param flute/2 @type bool, f 12;
#X obj 454 51 ossia.param quinte/223 @type bool, f 12;
#X obj 358 50 ossia.param flute/4 @type bool, f 12;
#X obj 263 108 ctlout 21 15;
#X obj 263 50 ossia.param bourdon/8 @type bool, f 12;
#X obj 169 50 ossia.param bourdon/16 @type bool, f 12;
#X obj 169 108 ctlout 20 15;
#X obj 8 6 ossia.model clavier2;
#X obj 82 28 r transpogenerale;
#X obj 7 56 +;
#X obj 138 201 metro 1;
#X msg 224 166 stop;
#X obj 141 242 float;
#X obj 206 242 + 1;
#X obj 266 167 loadbang;
#X msg 141 268 note 2 \$1 0;
#X msg 207 202 35;
#X obj 295 213 sel 49;
#X msg 138 172 bang;
#X connect 3 0 9 0;
#X connect 3 0 10 0;
#X connect 4 0 3 0;
#X connect 5 0 7 0;
#X connect 6 0 4 1;
#X connect 7 0 6 0;
#X connect 8 0 20 0;
#X connect 8 1 5 0;
#X connect 11 0 2 0;
#X connect 12 0 1 0;
#X connect 13 0 0 0;
#X connect 15 0 14 0;
#X connect 15 0 9 1;
#X connect 16 0 10 1;
#X connect 16 0 17 0;
#X connect 19 0 20 1;
#X connect 19 0 29 0;
#X connect 20 0 4 0;
#X connect 21 0 23 0;
#X connect 22 0 21 0;
#X connect 23 0 24 0;
#X connect 23 0 26 0;
#X connect 24 0 23 1;
#X connect 24 0 28 0;
#X connect 25 0 27 0;
#X connect 26 0 10 0;
#X connect 26 0 9 0;
#X connect 27 0 23 1;
#X connect 28 0 22 0;
#X connect 28 0 27 0;
#X connect 29 0 21 0;
#X restore 9 41 pd rang1;
#X obj 198 15 loadbang;
#X msg 198 67 \; pd dsp 1;
#X obj 198 42 delay 200;
#N canvas 317 106 891 394 rang2 0;
#X obj 171 116 ctlout 10 15;
#X obj 366 114 ctlout 12 15;
#X obj 462 113 ctlout 13 15;
#X obj 560 111 ctlout 14 15;
#X obj 25 33 notein 1;
#X obj 25 92 pack;
#X msg 25 116 note 1 \$1 \$2;
#X obj 102 65 > 0;
#X floatatom 62 90 5 0 0 0 - - -;
#X obj 102 89 * 125;
#X obj 240 160 b8;
#X obj 269 114 ctlout 11 15;
#X obj 25 153 b16;
#X obj 560 58 ossia.param flute/2 @type bool, f 12;
#X obj 463 57 ossia.param quinte/223 @type bool, f 12;
#X obj 367 57 ossia.param flute/4 @type bool, f 12;
#X obj 269 56 ossia.param bourdon/8 @type bool, f 12;
#X obj 171 56 ossia.param bourdon/16 @type bool, f 12;
#X obj 27 9 ossia.model clavier1;
#X obj 93 33 r transpogenerale;
#X obj 25 63 +;
#X obj 77 233 metro 1;
#X msg 163 198 stop;
#X obj 80 274 float;
#X obj 145 274 + 1;
#X obj 205 199 loadbang;
#X msg 146 234 35;
#X obj 234 245 sel 49;
#X msg 80 300 note 1 \$1 0;
#X msg 77 202 bang;
#X connect 4 0 20 0;
#X connect 4 1 7 0;
#X connect 5 0 6 0;
#X connect 6 0 10 0;
#X connect 6 0 12 0;
#X connect 7 0 9 0;
#X connect 8 0 5 1;
#X connect 9 0 8 0;
#X connect 13 0 3 0;
#X connect 14 0 2 0;
#X connect 15 0 1 0;
#X connect 16 0 11 0;
#X connect 16 0 10 1;
#X connect 17 0 0 0;
#X connect 17 0 12 1;
#X connect 19 0 20 1;
#X connect 19 0 29 0;
#X connect 20 0 5 0;
#X connect 21 0 23 0;
#X connect 22 0 21 0;
#X connect 23 0 24 0;
#X connect 23 0 28 0;
#X connect 24 0 23 1;
#X connect 24 0 27 0;
#X connect 25 0 26 0;
#X connect 26 0 23 1;
#X connect 27 0 22 0;
#X connect 27 0 26 0;
#X connect 28 0 12 0;
#X connect 28 0 10 0;
#X connect 29 0 21 0;
#X restore 9 64 pd rang2;
#N canvas 321 365 690 349 rang3 1;
#X msg 32 109 note 3 \$1 \$2;
#X obj 200 104 ctlout 1 15;
#X obj 296 105 ctlout 2 15;
#X obj 397 107 ctlout 3 15;
#X obj 32 82 pack;
#X obj 109 57 > 0;
#X floatatom 69 83 5 0 0 0 - - -;
#X obj 109 82 * 125;
#X obj 32 27 notein 3;
#X obj 252 143 b8;
#X obj 32 141 b16;
#X obj 397 50 ossia.param flute/4 @type bool, f 12;
#X obj 296 50 ossia.param bourdon/8 @type bool, f 12;
#X obj 200 49 ossia.param bourdon/16 @type bool, f 12;
#X obj 31 3 ossia.model pedale;
#X obj 32 56 +;
#X obj 99 27 r transpogenerale;
#X obj 88 216 metro 1;
#X msg 150 188 stop;
#X obj 91 257 float;
#X obj 156 257 + 1;
#X obj 192 189 loadbang;
#X msg 157 217 35;
#X obj 221 235 sel 49;
#X msg 88 187 bang;
#X msg 91 283 note 3 \$1 0;
#X connect 0 0 9 0;
#X connect 0 0 10 0;
#X connect 4 0 0 0;
#X connect 5 0 7 0;
#X connect 6 0 4 1;
#X connect 7 0 6 0;
#X connect 8 0 15 0;
#X connect 8 1 5 0;
#X connect 11 0 3 0;
#X connect 12 0 2 0;
#X connect 12 0 9 1;
#X connect 13 0 1 0;
#X connect 13 0 10 1;
#X connect 15 0 4 0;
#X connect 16 0 15 1;
#X connect 16 0 24 0;
#X connect 17 0 19 0;
#X connect 18 0 17 0;
#X connect 19 0 20 0;
#X connect 19 0 25 0;
#X connect 20 0 19 1;
#X connect 20 0 23 0;
#X connect 21 0 22 0;
#X connect 22 0 19 1;
#X connect 23 0 18 0;
#X connect 23 0 22 0;
#X connect 24 0 17 0;
#X connect 25 0 10 0;
#X connect 25 0 9 0;
#X restore 9 89 pd rang3;
#N canvas 43 161 1139 539 nfonctions 0;
#X obj 7 108 > 0;
#X obj 35 213 ctlout 40 11;
#X obj 842 365 ctlout 42 11;
#X obj 374 115 > 0;
#X obj 386 206 ctlout 41 11;
#X obj 135 332 ctlout 43 11;
#X obj 473 356 ctlout 44 11;
#X obj 352 -4 loadbang;
#X obj 352 24 delay 10;
#X obj 135 186 sel 0;
#X msg 135 250 127;
#X obj 497 194 sel 0;
#X msg 455 243 127;
#X obj 9 239 sel 1;
#X obj 379 235 sel 1;
#X obj 762 177 sel 0;
#X msg 819 280 0;
#X obj 825 141 sel 1;
#X obj 761 324 spigot;
#X floatatom 834 428 5 0 0 0 - - -;
#X obj 825 171 bng 15 250 50 0 empty empty empty 17 7 0 10 -262144
-1 -1;
#X obj 825 194 delay 50;
#X text 868 93 activation attaque;
#X text 881 427 valeur attaque;
#X text 543 90 activation transpo2;
#X text 174 419 valeur transpo1;
#X text 171 89 activation transpo1;
#X text 529 422 valeur transpo2;
#X obj 13 25 ossia.model nfonctionscl2;
#X obj 372 67 ossia.param transpo.2/activation @type bool;
#X obj 528 95 tgl 15 0 empty empty empty 17 7 0 10 -262144 -1 -1 0
1;
#X obj 440 320 int;
#X obj 3 67 ossia.param transpo.1/activation @type bool;
#X obj 368 449 ossia.param transpo.2/valeur @type int @range 0 36 @unit
midinote @description "valeur de transposition 2 pour clavier 2",
f 38;
#X obj 91 299 int;
#X obj 9 448 ossia.param transpo.1/valeur @type int @range 0 36 @unit
midinote @description "valeur de transposition 1 pour clavier 2",
f 38;
#X obj 150 92 tgl 15 0 empty empty empty 17 7 0 10 -262144 -1 -1 0
1;
#X obj 846 93 tgl 15 0 empty empty empty 17 7 0 10 -262144 -1 -1 0
1;
#X obj 748 292 int;
#X floatatom 124 418 5 0 0 0 - - -;
#X floatatom 469 425 5 0 0 0 - - -;
#X obj 700 456 ossia.param attaque/duree @type int @range 0 127 @unit
ms @description "duree attaque pour les transpos actives du clavier2"
;
#X obj 704 65 ossia.param attaque/activation @type bool;
#X connect 0 0 13 0;
#X connect 0 0 9 0;
#X connect 0 0 1 0;
#X connect 0 0 36 0;
#X connect 3 0 4 0;
#X connect 3 0 11 0;
#X connect 3 0 14 0;
#X connect 3 0 30 0;
#X connect 7 0 8 0;
#X connect 8 0 10 0;
#X connect 8 0 12 0;
#X connect 8 0 16 0;
#X connect 9 0 10 0;
#X connect 10 0 5 0;
#X connect 10 0 39 0;
#X connect 11 0 12 0;
#X connect 12 0 6 0;
#X connect 12 0 40 0;
#X connect 13 0 34 0;
#X connect 14 0 31 0;
#X connect 15 0 16 0;
#X connect 16 0 2 0;
#X connect 16 0 18 1;
#X connect 16 0 19 0;
#X connect 17 0 20 0;
#X connect 18 0 19 0;
#X connect 18 0 2 0;
#X connect 20 0 21 0;
#X connect 21 0 38 0;
#X connect 29 0 3 0;
#X connect 31 0 6 0;
#X connect 31 0 40 0;
#X connect 32 0 0 0;
#X connect 33 0 31 0;
#X connect 34 0 5 0;
#X connect 34 0 39 0;
#X connect 35 0 34 0;
#X connect 38 0 18 0;
#X connect 41 0 38 0;
#X connect 42 0 18 1;
#X connect 42 0 15 0;
#X connect 42 0 17 0;
#X connect 42 0 37 0;
#X restore 9 115 pd nfonctions;
#N canvas 295 375 215 187 synthesoundfonts 0;
#X obj 53 88 tgl 15 0 empty empty empty 17 7 0 10 -262144 -1 -1 0 1
;
#X obj 23 36 pack;
#X obj 23 109 sons;
#X obj 121 59 r sons;
#X obj 23 13 notein 2;
#X msg 23 60 note 1 \$1 \$2;
#X connect 0 0 2 1;
#X connect 1 0 5 0;
#X connect 3 0 0 0;
#X connect 4 0 1 0;
#X connect 4 1 1 1;
#X connect 5 0 2 0;
#X restore 10 195 pd synthesoundfonts;
#N canvas 103 136 450 458 transpogeneral 0;
#X obj 7 117 t i i;
#X obj 39 143 < 0;
#X obj 39 166 * 128;
#X obj 4 244 ctlout 127 1;
#X obj 4 196 +;
#X obj 157 205 s transpogenerale;
#X obj 7 28 loadbang;
#X obj 7 53 delay 10;
#X msg 7 81 0;
#X obj 7 6 ossia.model transp;
#X obj 157 126 sel 1;
#X msg 157 151 127;
#X obj 100 124 sel 0;
#X msg 100 150 0;
#X obj 157 178 - 128;
#X obj 100 31 ossia.param transpogenerale/valeur @type bool;
#X text 5 292 quand la transpo sera au point \, la valeur de transpo
générale ira de -6 à +6 et il faudra alors relier ossia.param à
t i i et rétablir la liaison + à ctlout il faudra aussi changer le
type bool en type int;
#X connect 0 0 4 0;
#X connect 0 1 1 0;
#X connect 1 0 2 0;
#X connect 2 0 4 1;
#X connect 6 0 7 0;
#X connect 7 0 8 0;
#X connect 8 0 0 0;
#X connect 10 0 11 0;
#X connect 11 0 3 0;
#X connect 11 0 14 0;
#X connect 12 0 13 0;
#X connect 13 0 3 0;
#X connect 13 0 5 0;
#X connect 14 0 5 0;
#X connect 15 0 12 0;
#X connect 15 0 10 0;
#X restore 10 156 pd transpogeneral;
#X connect 2 0 4 0;
#X connect 4 0 3 0;
#X restore 24 16 pd registres;
#N canvas 123 98 642 576 combinateur 0;
#X obj 32 478 outlet;
#X obj 36 419 list prepend preset;
#X obj 36 443 list trim;
#X msg 96 484 namespace;
#X msg 409 128 Mac;
#X msg 456 129 rPi;
#X obj 410 94 loadbang;
#N canvas 756 212 284 260 OS 0;
#X obj 21 19 inlet;
#X obj 21 56 symbol;
#X obj 177 208 s OS;
#X msg 21 128 /Users/bltzr/dev/combinateurs, f 16;
#X msg 159 126 /home/pi/dev/combinateurs, f 13;
#X obj 21 91 sel Mac rPi, f 35;
#X obj 106 208 outlet;
#X obj 178 176 list;
#X connect 0 0 1 0;
#X connect 1 0 5 0;
#X connect 3 0 7 0;
#X connect 4 0 7 0;
#X connect 5 0 3 0;
#X connect 5 1 4 0;
#X connect 7 0 2 0;
#X connect 7 0 6 0;
#X restore 409 160 pd OS;
#X obj 99 185 list tosymbol, f 8;
#X obj 99 160 + 64;
#X obj 28 236 pack 1 s 1, f 21;
#X obj 28 263 list prepend, f 47;
#X msg 10 341 save /home/pi/dev/combinateurs/2/B/45.json;
#X msg 237 364 load /home/pi/dev/combinateurs/2/B/45.json;
#X obj 14 60 t b b, f 6;
#X obj 241 64 t b b, f 6;
#X msg 28 296 set save \$1/\$2/\$3/\$4.json;
#X msg 218 295 set load \$1/\$2/\$3/\$4.json;
#X obj 14 16 ossia.param sauver @type impulse, f 18;
#X obj 241 14 ossia.param charger @type impulse, f 19;
#X obj 463 17 ossia.model combinateur, f 11;
#X text 36 371 comment;
#X msg 240 494 save /home/pi/dev/combinateurs/0.json;
#X msg 409 332 set save \$1/0.json;
#X text 327 457 pour mettre à jour la mémoire de remise à 0 (reset)
:, f 29;
#X obj 441 216 ossia.param reset @type impulse, f 17;
#X msg 433 302 set load \$1/0.json;
#X msg 242 397 load /home/pi/dev/combinateurs/0.json;
#X text 478 81 connecter en fonction de l'OS, f 16;
#X obj 172 171 ossia.param combinaison @type int @range 0 9 @recall_safe
, f 23;
#X obj 34 127 ossia.param serie @type int @range 1 9 @recall_safe;
#X obj 28 97 ossia.param niveau @type int @range 1 9 @recall_safe;
#X text 234 519 NB: enlever (à la main) la partie combinateurs du
fichier après sauvegarde;
#N canvas 0 22 450 300 précision 0;
#X text 54 63 enlever à partir de ou jusqu'à la virgule \, "combinateur":
"niveau": 2 \, "serie": 1 \, "combinaison": 0;
#X restore 451 540 pd précision;
#X connect 1 0 2 0;
#X connect 2 0 0 0;
#X connect 3 0 0 0;
#X connect 4 0 7 0;
#X connect 5 0 7 0;
#X connect 6 0 5 0;
#X connect 7 0 11 1;
#X connect 7 0 23 0;
#X connect 7 0 26 0;
#X connect 8 0 10 1;
#X connect 9 0 8 0;
#X connect 10 0 11 0;
#X connect 11 0 16 0;
#X connect 11 0 17 0;
#X connect 12 0 1 0;
#X connect 13 0 1 0;
#X connect 14 0 12 0;
#X connect 14 1 31 0;
#X connect 15 0 13 0;
#X connect 15 1 31 0;
#X connect 16 0 12 0;
#X connect 17 0 13 0;
#X connect 18 0 14 0;
#X connect 19 0 15 0;
#X connect 22 0 1 0;
#X connect 23 0 22 0;
#X connect 25 0 27 0;
#X connect 26 0 27 0;
#X connect 27 0 1 0;
#X connect 29 0 10 2;
#X connect 30 0 9 0;
#X connect 31 0 10 0;
#X restore 24 41 pd combinateur;
#X connect 0 0 3 0;
#X connect 1 0 2 0;
#X connect 2 0 0 0;
#X connect 5 0 0 0;
