#N canvas 305 245 188 232 12;
#X floatatom 91 20 5 0 0 0 - - -;
#X obj 91 45 t i i;
#X obj 123 75 > 64;
#X obj 91 130 +, f 5;
#X floatatom 92 187 5 0 0 0 - - -;
#X floatatom 26 21 5 0 0 0 - - -;
#X obj 26 161 +, f 7;
#X floatatom 25 189 5 0 0 0 - - -;
#X obj 123 102 * -128;
#X connect 0 0 1 0;
#X connect 1 0 3 0;
#X connect 1 1 2 0;
#X connect 2 0 8 0;
#X connect 3 0 4 0;
#X connect 3 0 6 1;
#X connect 5 0 6 0;
#X connect 6 0 7 0;
#X connect 8 0 3 1;
