#N canvas 305 245 230 483 12;
#X floatatom 102 284 5 0 0 0 - - -;
#X obj 102 309 t i i;
#X obj 134 339 > 64;
#X obj 102 394 +, f 5;
#X floatatom 103 451 5 0 0 0 - - -;
#X floatatom 37 285 5 0 0 0 - - -;
#X obj 37 425 +, f 7;
#X floatatom 36 453 5 0 0 0 - - -;
#X obj 134 366 * -128;
#X floatatom 126 37 5 0 0 0 - - -;
#X obj 159 94 < 0;
#X floatatom 127 180 5 0 0 0 - - -;
#X obj 159 121 * 128;
#X obj 127 68 t i i;
#X obj 127 153 +, f 5;
#X text 34 258 ce que fait la carte :;
#X floatatom 41 37 5 0 0 0 - - -;
#X obj 41 184 +, f 7;
#X floatatom 40 212 5 0 0 0 - - -;
#X text 38 12 le convertisseur :;
#X connect 0 0 1 0;
#X connect 1 0 3 0;
#X connect 1 1 2 0;
#X connect 2 0 8 0;
#X connect 3 0 4 0;
#X connect 3 0 6 1;
#X connect 5 0 6 0;
#X connect 6 0 7 0;
#X connect 8 0 3 1;
#X connect 9 0 13 0;
#X connect 10 0 12 0;
#X connect 12 0 14 1;
#X connect 13 0 14 0;
#X connect 13 1 10 0;
#X connect 14 0 11 0;
#X connect 14 0 17 1;
#X connect 16 0 17 0;
#X connect 17 0 18 0;
